<svg width="53" height="50" viewBox="0 0 53 50" fill="none" xmlns="http://www.w3.org/2000/svg">
<g clip-path="url(#clip0_260_875)">
<mask id="mask0_260_875" style="mask-type:luminance" maskUnits="userSpaceOnUse" x="0" y="2" width="49" height="48">
<path d="M48.1154 2.00928H0V49.9961H48.1154V2.00928Z" fill="white"/>
</mask>
<g mask="url(#mask0_260_875)">
<path d="M24.0067 2.01709C10.7822 2.01709 0 12.7605 0 25.94C0 39.1195 10.7822 49.8629 24.0067 49.8629C37.2311 49.8629 48.0133 39.1195 48.0133 25.94C48.0133 12.7605 37.2311 2.01709 24.0067 2.01709ZM24.0067 7.5709C34.2195 7.5709 42.4416 15.7645 42.4416 25.9439C42.4416 36.1233 34.2195 44.3169 24.0067 44.3169C13.7938 44.3169 5.56779 36.1233 5.56779 25.9439C5.56779 15.7645 13.7938 7.5709 24.0067 7.5709Z" fill="#051545"/>
</g>
<path d="M24.0067 2.94141C11.2849 2.94141 0.930664 13.2618 0.930664 25.94C0.930664 38.6182 11.2849 48.9386 24.0107 48.9386C36.7365 48.9386 47.0868 38.6221 47.0868 25.94C47.0868 13.2579 36.7286 2.94141 24.0067 2.94141ZM24.0067 6.64656C34.7222 6.64656 43.3723 15.2632 43.3723 25.9439C43.3723 36.6246 34.7261 45.2413 24.0067 45.2413C13.2874 45.2413 4.64121 36.6207 4.64121 25.94C4.64121 15.2593 13.2874 6.64656 24.0067 6.64656Z" fill="white"/>
<path d="M24.0069 3.86963C11.7836 3.86963 1.85742 13.7631 1.85742 25.9439C1.85742 38.1247 11.7836 48.0181 24.0069 48.0181C36.2301 48.0181 46.1563 38.1247 46.1563 25.9439C46.1563 13.7631 36.2301 3.86963 24.0069 3.86963ZM24.0069 5.71829C35.2249 5.71829 44.299 14.7618 44.299 25.94C44.299 37.1181 35.2249 46.1617 24.0069 46.1617C12.7888 46.1617 3.71466 37.122 3.71466 25.94C3.71466 14.7579 12.7888 5.71829 24.0069 5.71829Z" fill="#051545"/>
<path d="M45.2292 26.0067C45.2292 37.6588 35.7506 47.1018 24.0614 47.1018C12.3722 47.1018 2.88965 37.6588 2.88965 26.0067C2.88965 14.3547 12.3682 4.90771 24.0575 4.90771C35.7467 4.90771 45.2292 14.3508 45.2292 26.0028V26.0067Z" fill="#F89728"/>
<path d="M24.0575 4.90771C24.0339 4.90771 24.0104 4.90771 23.9868 4.90771C23.9789 4.90771 23.9711 4.90771 23.9632 4.90771C23.9475 4.90771 23.9318 4.90771 23.9161 4.90771C23.9083 4.90771 23.9004 4.90771 23.8886 4.90771C23.8729 4.90771 23.8611 4.90771 23.8454 4.90771C23.8376 4.90771 23.8297 4.90771 23.8219 4.90771C23.8062 4.90771 23.7905 4.90771 23.7787 4.90771C23.7669 4.90771 23.7591 4.90771 23.7473 4.90771C23.7355 4.90771 23.7237 4.90771 23.7119 4.90771C23.7002 4.90771 23.6884 4.90771 23.6766 4.90771C23.6648 4.90771 23.657 4.90771 23.6452 4.90771C23.6334 4.90771 23.6177 4.90771 23.6059 4.90771C23.5981 4.90771 23.5863 4.90771 23.5784 4.90771C23.5627 4.90771 23.551 4.90771 23.5352 4.90771H23.5117C23.5117 4.90771 23.4803 4.90771 23.4646 4.90771C23.4567 4.90771 23.4489 4.90771 23.441 4.90771C23.4253 4.90771 23.4096 4.90771 23.3939 4.90771C23.386 4.90771 23.3782 4.90771 23.3703 4.90771C23.3546 4.90771 23.3389 4.90771 23.3232 4.90771C23.3154 4.90771 23.3114 4.90771 23.3036 4.90771C23.2879 4.90771 23.2722 4.90771 23.2565 4.90771C23.2486 4.90771 23.2447 4.90771 23.2368 4.90771C23.2211 4.90771 23.2054 4.90771 23.1897 4.90771C23.1819 4.90771 23.174 4.90771 23.1662 4.90771C23.1504 4.90771 23.1347 4.90771 23.119 4.90771C23.1112 4.90771 23.1033 4.90771 23.0955 4.90771C23.0798 4.90771 23.0641 4.90771 23.0444 4.90771H23.0366C17.1468 5.1858 11.8892 7.86087 8.21794 11.9734L23.2997 25.2821L23.9986 25.9636L23.4803 26.0028L2.88574 26.5041C2.88967 26.6686 2.89752 26.8331 2.90537 26.9976C2.90537 26.9976 2.90537 26.9976 2.90537 27.0016C2.90537 27.0211 2.90537 27.0407 2.90537 27.0642C2.90537 27.0721 2.90537 27.0799 2.90537 27.0877C2.90537 27.1034 2.90537 27.1151 2.90537 27.1308C2.90537 27.1465 2.90537 27.1621 2.90537 27.1778C2.90537 27.1856 2.90537 27.1896 2.90537 27.1974C2.91323 27.3071 2.91715 27.4128 2.92501 27.5186C3.34907 33.3896 6.18401 38.5949 10.4482 42.1551L24.03 26.0028L24.0378 26.0106V25.995H24.0418L24.0575 25.9871V26.0302L24.0378 26.0067V47.0705C30.0179 47.0705 35.4208 44.5991 39.2688 40.6237C39.2688 40.6237 39.2727 40.6198 39.2766 40.6158C39.2884 40.6041 39.3002 40.5923 39.312 40.5806C39.3159 40.5767 39.3198 40.5728 39.3237 40.5688C39.3316 40.561 39.3434 40.5493 39.3512 40.5414C39.3591 40.5336 39.363 40.5258 39.3709 40.5218C39.3787 40.514 39.3866 40.5062 39.3944 40.4983C39.4023 40.4905 39.4101 40.4788 39.4219 40.4709C39.4258 40.467 39.4298 40.4631 39.4337 40.4553C39.4455 40.4435 39.4572 40.4318 39.469 40.42C39.469 40.42 39.4729 40.4161 39.4769 40.4122C39.4886 40.3965 39.5044 40.3848 39.5161 40.3691C39.6496 40.2281 39.7792 40.0832 39.9088 39.9383L24.0928 25.9832L45.2056 25.4662C45.0643 19.5482 42.4767 14.2333 38.4128 10.485C38.4128 10.485 38.4049 10.4772 38.401 10.4733C38.3892 10.4654 38.3814 10.4537 38.3696 10.4459C38.3657 10.4419 38.3578 10.438 38.3539 10.4302C38.3421 10.4184 38.3303 10.4106 38.3225 10.3989C38.3225 10.3989 38.3186 10.3949 38.3146 10.391C38.3028 10.3793 38.2871 10.3675 38.2754 10.3558C38.0712 10.1717 37.8591 9.98761 37.6471 9.81136L24.3716 25.5955L24.0575 25.9323L24.0378 25.5681V4.90771H24.0575ZM24.0575 25.9832V25.9676L24.0653 25.9754L24.0575 25.9832Z" fill="white"/>
<path d="M52.5523 34.5917C52.5523 34.5917 51.555 34.2784 50.271 34.2353C48.987 34.1922 47.8366 34.2901 47.2829 34.0982C46.7332 33.9063 43.6391 31.8579 41.7819 31.2391C39.9247 30.6202 39.2925 30.773 39.2925 30.773L35.3149 29.1437L35.366 28.6932C35.366 28.6932 34.9223 28.3995 33.9956 28.1253C33.0651 27.8512 31.0193 26.6723 30.5128 26.2728C30.0063 25.8733 29.3663 26.2336 29.3663 26.2336L27.407 25.6108C27.407 25.6108 26.9515 24.6943 26.5313 24.7492C26.1112 24.804 25.7618 24.8275 25.6283 24.7178C25.4947 24.6082 24.4346 23.0102 24.4346 23.0102C24.4346 23.0102 24.4228 21.3456 24.4267 21.1694C24.4346 20.997 26.6491 21.2908 27.7643 21.185C28.8794 21.0793 29.5391 21.2046 30.9487 20.6641C32.3583 20.1236 34.5257 19.7437 35.5034 19.6732C36.4811 19.6027 37.3214 19.352 37.5413 19.0504C37.7612 18.7449 38.5897 18.8781 38.5897 18.8781C38.5897 18.8781 39.6223 19.2267 39.8658 19.164C40.1131 19.1014 40.3958 18.9408 40.3958 18.9408L40.3409 18.557C40.3409 18.557 40.3527 18.177 40.1877 17.9969C40.0189 17.8167 38.8056 16.771 38.5661 16.6221C38.3266 16.4733 37.981 16.395 37.5216 16.6221C37.0622 16.8493 35.9236 17.5386 35.9236 17.5386L34.4629 17.5935L34.1017 18.0321C34.1017 18.0321 32.2248 17.9695 30.9055 17.993C29.5822 18.0165 29.1543 18.3494 27.6975 18.2632C26.2408 18.177 25.0236 17.1665 23.8731 17.1626C22.7266 17.1587 21.4347 17.288 21.4347 17.288L20.4963 17.2214L20.1272 16.7905L19.7385 16.9159L19.5147 16.3871C19.5147 16.3871 19.8956 15.3923 19.8092 14.8714C19.7228 14.3505 19.0514 13.6651 18.7804 13.4144C18.5095 13.1637 17.6339 12.4078 16.5894 12.4039C15.545 12.4039 14.6811 13.2381 14.7204 14.1429C14.7597 15.0476 15.0424 15.9563 15.0424 15.9563L15.0974 16.4106L14.3788 16.109C14.3788 16.109 13.7506 15.1181 12.9574 13.9079C12.1643 12.6976 11.2612 11.5971 10.9078 10.8529C10.5505 10.1126 9.36073 8.2679 9.09766 7.84099C8.83458 7.41407 8.438 6.74432 8.438 6.74432C8.438 6.74432 8.78353 5.55758 8.63825 4.64108C9.15263 4.18675 9.48638 3.5405 9.50994 2.80809C9.55706 1.38242 8.42622 0.187845 6.97734 0.136929C5.52846 0.0860123 4.31517 1.20226 4.26805 2.62792C4.25627 3.00392 4.32695 3.36425 4.46045 3.68933C4.35836 3.799 4.25627 3.93217 4.21701 4.06533C4.13848 4.3395 4.01675 4.8565 4.18167 5.03666C4.34658 5.21683 4.40548 5.60066 4.60573 5.81608C4.80598 6.03149 5.37533 6.67382 5.96038 6.93624C6.5415 7.19865 6.71034 7.93499 6.71034 7.93499C6.71034 7.93499 9.69448 13.6572 10.0636 14.0841C10.4327 14.515 10.7232 16.1521 11.752 17.5425C12.7807 18.929 13.7977 20.7699 13.9862 21.3652C14.1746 21.9605 14.85 23.5781 15.8041 25.1722C16.7583 26.7663 18.482 29.2181 18.7176 29.4335C18.9532 29.6489 20.3432 30.7025 20.3432 30.7025L21.6232 31.9245C21.6232 31.9245 22.0865 33.5695 23.7749 34.0434C25.4633 34.5173 28.7773 36.2602 29.7472 36.2955C30.7209 36.3307 31.3806 36.3503 31.3806 36.3503L32.0677 35.5748L35.2403 36.3072C35.2403 36.3072 36.8149 37.0553 38.9627 37.3021C41.1105 37.5488 45.2137 37.5136 45.2137 37.5136C45.2137 37.5136 46.8353 37.917 47.4871 38.148C48.1389 38.3791 48.8653 38.4731 49.0499 38.2029C49.2344 37.9326 49.0891 37.024 49.0891 37.024L48.5865 36.4874C48.5865 36.4874 51.2526 36.7851 51.4647 36.6911C51.6767 36.5931 52.6701 36.0056 52.8154 35.8333C52.9607 35.6649 52.5445 34.5761 52.5445 34.5761L52.5523 34.5917ZM44.1025 35.7197C43.7648 35.7628 41.5424 34.8737 41.2047 34.7797C40.867 34.6857 38.3187 33.5577 38.3187 33.5577C38.3187 33.5577 36.3201 33.5734 35.9825 33.4794C35.6448 33.3854 34.0467 32.4572 34.0467 32.4572L37.7219 32.8645L37.9379 33.1817L42.1078 34.7288L44.8014 35.3555C44.8014 35.3555 44.4401 35.6806 44.1025 35.7236V35.7197Z" fill="#09203F" stroke="white" stroke-width="0.75" stroke-miterlimit="20"/>
</g>
<defs>
<clipPath id="clip0_260_875">
<rect width="53" height="50" fill="white"/>
</clipPath>
</defs>
</svg>
