<svg width="176" height="82" viewBox="0 0 176 82" fill="none" xmlns="http://www.w3.org/2000/svg">
<g clip-path="url(#clip0_260_1003)">
<mask id="mask0_260_1003" style="mask-type:luminance" maskUnits="userSpaceOnUse" x="0" y="3" width="79" height="79">
<path d="M78.9819 3.29492H0V81.9933H78.9819V3.29492Z" fill="white"/>
</mask>
<g mask="url(#mask0_260_1003)">
<path d="M39.4072 3.30811C17.6991 3.30811 0 20.9272 0 42.5417C0 64.1561 17.6991 81.7753 39.4072 81.7753C61.1153 81.7753 78.8143 64.1561 78.8143 42.5417C78.8143 20.9272 61.1153 3.30811 39.4072 3.30811ZM39.4072 12.4164C56.1717 12.4164 69.6683 25.8539 69.6683 42.5481C69.6683 59.2423 56.1717 72.6799 39.4072 72.6799C22.6427 72.6799 9.13958 59.2423 9.13958 42.5481C9.13958 25.8539 22.6427 12.4164 39.4072 12.4164Z" fill="#09203F"/>
</g>
<path d="M39.407 4.82373C18.5239 4.82373 1.52734 21.7492 1.52734 42.5414C1.52734 63.3337 18.5239 80.2591 39.4134 80.2591C60.3029 80.2591 77.293 63.3401 77.293 42.5414C77.293 21.7427 60.29 4.82373 39.407 4.82373ZM39.407 10.9002C56.9964 10.9002 71.1957 25.0315 71.1957 42.5478C71.1957 60.0642 57.0029 74.1955 39.407 74.1955C21.811 74.1955 7.61825 60.0578 7.61825 42.5414C7.61825 25.025 21.811 10.9002 39.407 10.9002Z" fill="white"/>
<path d="M39.4073 6.34619C19.3428 6.34619 3.04883 22.5715 3.04883 42.548C3.04883 62.5245 19.3428 78.7498 39.4073 78.7498C59.4719 78.7498 75.7658 62.5245 75.7658 42.548C75.7658 22.5715 59.4719 6.34619 39.4073 6.34619ZM39.4073 9.37799C57.8218 9.37799 72.7171 24.2094 72.7171 42.5416C72.7171 60.8737 57.8218 75.7051 39.4073 75.7051C20.9928 75.7051 6.0975 60.8801 6.0975 42.5416C6.0975 24.203 20.9928 9.37799 39.4073 9.37799Z" fill="#09203F"/>
<path d="M74.2449 42.6507C74.2449 61.7601 58.6857 77.2467 39.4977 77.2467C20.3098 77.2467 4.74414 61.7601 4.74414 42.6507C4.74414 23.5414 20.3033 8.04834 39.4913 8.04834C58.6792 8.04834 74.2449 23.5349 74.2449 42.6443V42.6507Z" fill="#209927"/>
<path d="M39.4909 8.04834C39.4522 8.04834 39.4136 8.04834 39.3749 8.04834C39.362 8.04834 39.3491 8.04834 39.3362 8.04834C39.3104 8.04834 39.2846 8.04834 39.2589 8.04834C39.246 8.04834 39.2331 8.04834 39.2137 8.04834C39.188 8.04834 39.1686 8.04834 39.1428 8.04834C39.13 8.04834 39.1171 8.04834 39.1042 8.04834C39.0784 8.04834 39.0526 8.04834 39.0333 8.04834C39.0139 8.04834 39.001 8.04834 38.9817 8.04834C38.9624 8.04834 38.943 8.04834 38.9237 8.04834C38.9044 8.04834 38.885 8.04834 38.8657 8.04834C38.8464 8.04834 38.8335 8.04834 38.8141 8.04834C38.7948 8.04834 38.769 8.04834 38.7497 8.04834C38.7368 8.04834 38.7175 8.04834 38.7046 8.04834C38.6788 8.04834 38.6594 8.04834 38.6337 8.04834H38.595C38.595 8.04834 38.5434 8.04834 38.5176 8.04834C38.5048 8.04834 38.4919 8.04834 38.479 8.04834C38.4532 8.04834 38.4274 8.04834 38.4016 8.04834C38.3887 8.04834 38.3758 8.04834 38.363 8.04834C38.3372 8.04834 38.3114 8.04834 38.2856 8.04834C38.2727 8.04834 38.2663 8.04834 38.2534 8.04834C38.2276 8.04834 38.2018 8.04834 38.176 8.04834C38.1631 8.04834 38.1567 8.04834 38.1438 8.04834C38.118 8.04834 38.0922 8.04834 38.0665 8.04834C38.0536 8.04834 38.0407 8.04834 38.0278 8.04834C38.002 8.04834 37.9762 8.04834 37.9505 8.04834C37.9376 8.04834 37.9247 8.04834 37.9118 8.04834C37.886 8.04834 37.8602 8.04834 37.828 8.04834H37.8151C28.147 8.50439 19.5166 12.8915 13.4902 19.636L25.5 31L38.2469 41.4624L39.3942 42.5801L38.5434 42.6443L4.7373 43.4665C4.74375 43.7363 4.75664 44.006 4.76953 44.2758C4.76953 44.2758 4.76953 44.2758 4.76953 44.2822C4.76953 44.3144 4.76953 44.3465 4.76953 44.385C4.76953 44.3979 4.76953 44.4107 4.76953 44.4236C4.76953 44.4493 4.76953 44.4685 4.76953 44.4942C4.76953 44.5199 4.76953 44.5456 4.76953 44.5713C4.76953 44.5841 4.76953 44.5906 4.76953 44.6034C4.78242 44.7833 4.78887 44.9567 4.80176 45.1301C5.49786 54.7587 10.1514 63.2952 17.1511 69.134L39.4458 42.6443L39.4587 42.6571V42.6315H39.4651L39.4909 42.6186V42.6893L39.4587 42.6507V77.1953C49.275 77.1953 58.1439 73.1422 64.4604 66.6225C64.4604 66.6225 64.4668 66.6161 64.4733 66.6097C64.4926 66.5904 64.5119 66.5711 64.5313 66.5519C64.5377 66.5454 64.5442 66.539 64.5506 66.5326C64.5635 66.5197 64.5828 66.5005 64.5957 66.4876C64.6086 66.4748 64.6151 66.4619 64.628 66.4555C64.6408 66.4427 64.6537 66.4298 64.6666 66.417C64.6795 66.4041 64.6924 66.3849 64.7118 66.372C64.7182 66.3656 64.7246 66.3592 64.7311 66.3463C64.7504 66.3271 64.7698 66.3078 64.7891 66.2885C64.7891 66.2885 64.7955 66.2821 64.802 66.2757C64.8213 66.25 64.8471 66.2307 64.8664 66.205C65.0856 65.9738 65.2983 65.7361 65.511 65.4984L39.5489 42.6122L74.2058 41.7643C73.9738 32.0587 69.7263 23.3422 63.0553 17.1951C63.0553 17.1951 63.0424 17.1823 63.0359 17.1759C63.0166 17.163 63.0037 17.1437 62.9844 17.1309C62.9779 17.1245 62.965 17.1181 62.9586 17.1052C62.9393 17.0859 62.9199 17.0731 62.907 17.0538C62.907 17.0538 62.9006 17.0474 62.8941 17.041C62.8748 17.0217 62.849 17.0024 62.8297 16.9832C62.4945 16.6813 62.1465 16.3794 61.7984 16.0903L40.0065 41.9763L39.4909 42.5287L39.4587 41.9313V8.04834H39.4909ZM39.4909 42.6122V42.5865L39.5038 42.5993L39.4909 42.6122Z" fill="white"/>
<path d="M86.2641 59.659C86.2641 59.659 84.627 59.1451 82.5193 59.0745C80.4117 59.0038 78.5232 59.1644 77.6144 58.8497C76.712 58.5349 71.633 55.1755 68.5844 54.1607C65.5357 53.1458 64.498 53.3963 64.498 53.3963L57.9688 50.7242L58.0526 49.9855C58.0526 49.9855 57.3242 49.5038 55.8031 49.0541C54.2756 48.6045 50.9175 46.6711 50.0861 46.0159C49.2546 45.3607 48.204 45.9517 48.204 45.9517L44.9878 44.9304C44.9878 44.9304 44.2401 43.4273 43.5504 43.5172C42.8608 43.6072 42.2871 43.6457 42.068 43.4658C41.8488 43.286 40.1086 40.6653 40.1086 40.6653C40.1086 40.6653 40.0892 37.9354 40.0957 37.6463C40.1086 37.3637 43.7438 37.8454 45.5743 37.672C47.4048 37.4986 48.4876 37.7041 50.8015 36.8177C53.1154 35.9313 56.6733 35.3082 58.2782 35.1926C59.8831 35.077 61.2624 34.6659 61.6233 34.1713C61.9843 33.6703 63.3442 33.8887 63.3442 33.8887C63.3442 33.8887 65.0394 34.4604 65.439 34.3576C65.8451 34.2548 66.3091 33.9915 66.3091 33.9915L66.2189 33.362C66.2189 33.362 66.2382 32.7389 65.9675 32.4434C65.6904 32.148 63.6987 30.4329 63.3056 30.1889C62.9124 29.9448 62.3452 29.8163 61.5911 30.1889C60.837 30.5614 58.9678 31.6919 58.9678 31.6919L56.5701 31.7818L55.9772 32.5013C55.9772 32.5013 52.8963 32.3985 50.7306 32.437C48.5585 32.4756 47.856 33.0215 45.4647 32.8802C43.0735 32.7389 41.0754 31.0817 39.1869 31.0753C37.3048 31.0689 35.1843 31.2808 35.1843 31.2808L33.6439 31.1716L33.038 30.4651L32.3999 30.6706L32.0325 29.8035C32.0325 29.8035 32.6577 28.1719 32.5159 27.3176C32.3741 26.4633 31.2719 25.3393 30.8272 24.9282C30.3825 24.5171 28.9452 23.2774 27.2307 23.2709C25.5162 23.2709 24.0982 24.6391 24.1627 26.1229C24.2271 27.6067 24.6912 29.0969 24.6912 29.0969L24.7814 29.842L23.6019 29.3474C23.6019 29.3474 22.5707 27.7223 21.2687 25.7375C19.9667 23.7527 18.4843 21.9477 17.9042 20.7273C17.3177 19.5133 15.3647 16.4879 14.9329 15.7878C14.501 15.0877 13.85 13.9893 13.85 13.9893C13.85 13.9893 14.4172 12.043 14.1787 10.5399C15.0231 9.79484 15.5709 8.735 15.6096 7.53384C15.687 5.19575 13.8307 3.23664 11.4523 3.15314C9.07399 3.06963 7.08236 4.90028 7.00501 7.23836C6.98568 7.855 7.1017 8.44595 7.32084 8.97908C7.15326 9.15893 6.98568 9.37733 6.92122 9.59572C6.79232 10.0454 6.59251 10.8932 6.86322 11.1887C7.13392 11.4842 7.2306 12.1137 7.55932 12.4669C7.88803 12.8202 8.82262 13.8736 9.78298 14.304C10.7369 14.7344 11.0141 15.942 11.0141 15.942C11.0141 15.942 15.9126 25.3264 16.5184 26.0266C17.1243 26.7331 17.6013 29.4181 19.2899 31.6983C20.9786 33.9722 22.648 36.9911 22.9574 37.9675C23.2668 38.9438 24.3754 41.5967 25.9416 44.2109C27.5078 46.8252 30.3374 50.8462 30.7241 51.1995C31.1108 51.5528 33.3925 53.2807 33.3925 53.2807L35.4937 55.2847C35.4937 55.2847 36.2542 57.9825 39.0258 58.7597C41.7973 59.537 47.2372 62.3953 48.8292 62.4531C50.4277 62.511 51.5105 62.5431 51.5105 62.5431L52.6384 61.2713L57.8463 62.4724C57.8463 62.4724 60.4309 63.6993 63.9566 64.1039C67.4822 64.5086 74.2176 64.4508 74.2176 64.4508C74.2176 64.4508 76.8796 65.1124 77.9495 65.4914C79.0195 65.8704 80.2119 66.0245 80.5148 65.5813C80.8177 65.1381 80.5792 63.6479 80.5792 63.6479L79.7542 62.7679C79.7542 62.7679 84.1307 63.2561 84.4787 63.1019C84.8268 62.9413 86.4574 61.9778 86.6959 61.6952C86.9344 61.419 86.2512 59.6333 86.2512 59.6333L86.2641 59.659ZM72.3936 61.5089C71.8393 61.5796 68.1912 60.1215 67.6369 59.9673C67.0826 59.8132 62.8995 57.9633 62.8995 57.9633C62.8995 57.9633 59.6188 57.989 59.0645 57.8348C58.5102 57.6806 55.8869 56.1583 55.8869 56.1583L61.9198 56.8263L62.2743 57.3466L69.1193 59.8838L73.5409 60.9116C73.5409 60.9116 72.9479 61.4447 72.3936 61.5153V61.5089Z" fill="#09203F" stroke="white" stroke-width="0.75" stroke-miterlimit="20"/>
</g>
<g clip-path="url(#clip1_260_1003)">
<path d="M93 11.2856H98.1312V38.8991H93V11.2856ZM95.1125 34.3779H105.963V38.8991H95.1125V34.3779Z" fill="#09203F"/>
<path d="M111.596 38.3583C110.513 37.8053 109.686 37.0092 109.123 35.964C108.559 34.9187 108.271 33.6669 108.271 32.2145V11.2856H113.427V32.3482C113.427 33.0167 113.605 33.5393 113.966 33.916C114.327 34.2867 114.823 34.4751 115.454 34.4751C116.085 34.4751 116.611 34.2867 116.979 33.916C117.346 33.5454 117.53 33.0227 117.53 32.3482V11.2856H122.685V32.2145C122.685 33.673 122.398 34.9187 121.828 35.964C121.253 37.0092 120.426 37.8053 119.342 38.3583C118.258 38.9113 116.966 39.1847 115.46 39.1847C113.954 39.1847 112.68 38.9113 111.596 38.3583Z" fill="#09203F"/>
<path d="M128.888 38.3582C127.81 37.8052 126.983 37.0092 126.414 35.9579C125.838 34.9066 125.557 33.6426 125.557 32.1598V18.0249C125.557 16.5421 125.844 15.2781 126.414 14.2268C126.989 13.1755 127.81 12.3734 128.888 11.8265C129.965 11.2795 131.263 11 132.782 11C134.301 11 135.599 11.2735 136.682 11.8265C137.766 12.3795 138.593 13.1816 139.156 14.239C139.72 15.2964 140.007 16.5664 140.007 18.0492V20.2734H134.809V18.0492C134.809 17.5813 134.735 17.1741 134.582 16.8338C134.429 16.4935 134.196 16.2322 133.89 16.0438C133.578 15.8615 133.211 15.7704 132.782 15.7704C132.353 15.7704 132.01 15.8615 131.704 16.0378C131.398 16.214 131.172 16.4753 131.012 16.8156C130.853 17.1559 130.774 17.5631 130.774 18.031V32.1598C130.774 32.6277 130.853 33.0288 131.012 33.363C131.172 33.6973 131.404 33.9525 131.704 34.1348C132.01 34.311 132.366 34.4022 132.782 34.4022C133.223 34.4022 133.596 34.311 133.903 34.1348C134.209 33.9586 134.435 33.7033 134.588 33.363C134.741 33.0288 134.815 32.6216 134.815 32.1355V29.9113H140.014V32.1355C140.014 33.6183 139.732 34.8883 139.162 35.9457C138.599 37.0031 137.772 37.8052 136.689 38.3582C135.605 38.9112 134.307 39.1847 132.788 39.1847C131.27 39.1847 129.971 38.9112 128.894 38.3582H128.888Z" fill="#09203F"/>
<path d="M142.818 11.2856H147.95V38.8991H142.818V11.2856ZM146.896 26.1376L152.756 11.2856H158.555L146.903 34.5116V26.1376H146.896ZM148.776 23.8162L152.297 20.9844L159.504 38.893H153.871L148.776 23.8162Z" fill="#09203F"/>
<path d="M170.581 28.3192V38.8991H165.45V28.3192L159.811 11.2856H165.15L167.967 22.7163L170.661 11.2856H176L170.575 28.3192H170.581Z" fill="#09203F"/>
<path d="M93 44.1011H97.7455V71.7145H93V44.1011ZM94.9533 67.1933H104.983V71.7145H94.9533V67.1933Z" fill="#09203F"/>
<path d="M111.89 71.7145H107.145V44.1011H111.89V71.7145Z" fill="#09203F"/>
<path d="M114.597 44.1011H118.326L124.871 62.5202L124.357 63.2616V44.1011H128.68V71.6963H124.908L118.442 54.3407L118.938 53.581V71.6963H114.597V44.1011Z" fill="#09203F"/>
<path d="M131.576 44.1011H136.322V71.7145H131.576V44.1011ZM133.683 44.1011H143.939V48.6952H133.683V44.1011ZM133.683 55.7019H142.984V60.2778H133.683V55.7019ZM133.683 67.1143H143.939V71.7085H133.683V67.1143Z" fill="#09203F"/>
<path d="M149.199 71.1737C148.194 70.6207 147.435 69.8246 146.915 68.7794C146.394 67.7342 146.131 66.4823 146.131 65.0299V44.1011H150.895V65.1636C150.895 65.8321 151.06 66.3547 151.391 66.7315C151.721 67.1022 152.181 67.2906 152.768 67.2906C153.356 67.2906 153.834 67.1022 154.177 66.7315C154.514 66.3608 154.685 65.8382 154.685 65.1636V44.1011H159.449V65.0299C159.449 66.4884 159.186 67.7342 158.653 68.7794C158.12 69.8246 157.355 70.6207 156.357 71.1737C155.352 71.7267 154.158 72.0002 152.768 72.0002C151.378 72.0002 150.203 71.7267 149.199 71.1737Z" fill="#09203F"/>
<path d="M162.186 44.1011H166.931V71.7145H162.186V44.1011ZM164.408 56.4797H169.325C169.705 56.4797 170.042 56.3886 170.317 56.2124C170.599 56.0361 170.813 55.7748 170.966 55.4345C171.119 55.0942 171.199 54.687 171.199 54.2191V50.9741C171.199 50.4818 171.125 50.0564 170.978 49.704C170.832 49.3515 170.617 49.0781 170.336 48.8958C170.054 48.7134 169.717 48.6223 169.319 48.6223H164.402V44.1011H169.454C170.832 44.1011 172.013 44.3441 172.993 44.8242C173.973 45.3043 174.72 46.0092 175.234 46.939C175.742 47.8688 175.999 48.9869 175.999 50.2934V54.9484C175.999 56.2245 175.742 57.3183 175.222 58.2238C174.707 59.1293 173.954 59.816 172.975 60.296C171.995 60.77 170.819 61.007 169.454 61.007H164.402V56.4858L164.408 56.4797Z" fill="#09203F"/>
</g>
<defs>
<clipPath id="clip0_260_1003">
<rect width="87" height="82" fill="white"/>
</clipPath>
<clipPath id="clip1_260_1003">
<rect width="83" height="61" fill="white" transform="translate(93 11)"/>
</clipPath>
</defs>
</svg>
